<svg width="24" height="24" viewBox="0 0 24 24" fill="none" xmlns="http://www.w3.org/2000/svg">
<path fill-rule="evenodd" clip-rule="evenodd" d="M12 22.5C11.8011 22.5 11.6104 22.421 11.4697 22.2803C11.329 22.1397 11.25 21.9489 11.25 21.75L11.25 4.0605L6.53103 8.781C6.3902 8.92183 6.19919 9.00095 6.00003 9.00095C5.80087 9.00095 5.60986 8.92183 5.46903 8.781C5.3282 8.64017 5.24908 8.44916 5.24908 8.25C5.24908 8.05084 5.3282 7.85983 5.46903 7.719L11.469 1.719C11.5387 1.64916 11.6215 1.59374 11.7126 1.55593C11.8037 1.51812 11.9014 1.49866 12 1.49866C12.0987 1.49866 12.1964 1.51812 12.2875 1.55593C12.3786 1.59374 12.4614 1.64916 12.531 1.719L18.531 7.719C18.6719 7.85983 18.751 8.05084 18.751 8.25C18.751 8.44916 18.6719 8.64017 18.531 8.781C18.3902 8.92183 18.1992 9.00095 18 9.00095C17.8009 9.00095 17.6099 8.92183 17.469 8.781L12.75 4.0605L12.75 21.75C12.75 21.9489 12.671 22.1397 12.5304 22.2803C12.3897 22.421 12.1989 22.5 12 22.5V22.5Z" fill="black"/>
</svg>
