<svg width="32" height="32" viewBox="0 0 32 32" fill="none" xmlns="http://www.w3.org/2000/svg">
<path d="M24.3408 10.6232C23.8992 10.6232 23.4672 10.6632 23.0464 10.732C21.9968 7.29998 18.7456 4.80078 14.8944 4.80078C10.192 4.80078 6.3824 8.52558 6.3824 13.1192C6.3824 13.5288 6.4144 13.932 6.4736 14.3288C6.24588 14.3006 6.01666 14.2862 5.7872 14.2856C2.5904 14.2856 0 16.8168 0 19.9416C0 23.0664 2.5904 25.6008 5.7872 25.6008H12.8V19.2008H8.8L16 11.2008L23.2 19.2008H19.2V25.6008H24.3408C28.5696 25.6008 32 22.2472 32 18.1128C32 13.9752 28.5696 10.6232 24.3408 10.6232V10.6232Z" fill="black"/>
</svg>
